<svg xmlns="http://www.w3.org/2000/svg" viewBox="0 0 976.4 244.94"><defs><style>.cls-1{fill:#fff;}.cls-2{fill:#b11e48;}</style></defs><title>logo_white</title><g id="Layer_2" data-name="Layer 2"><g id="Layer_1-2" data-name="Layer 1"><path class="cls-1" d="M4.4,232.61A14.75,14.75,0,0,1,0,221.76V23.18a14.64,14.64,0,0,1,4.4-11A15,15,0,0,1,15.25,7.93H85.36q19.65,0,34.9,7.77a58.2,58.2,0,0,1,32.56,53.24,44.89,44.89,0,0,1-7.77,25.81,56.86,56.86,0,0,1-21.27,18.48q20,4.69,31.39,18.77t11.44,35.79q0,20-9.53,35.78a65.06,65.06,0,0,1-26.7,24.64Q113.22,237,91.52,237H15.25A14.71,14.71,0,0,1,4.4,232.61Zm81-130.53q17.3,0,27.72-8.5t10.41-24.64q0-16.12-10.41-24.49T85.36,36.09H30.51v66Zm6.16,106.77q20.52,0,33.14-10.7t12.62-30.36q0-18.18-12.47-27.87t-33.29-9.68h-61v78.61Z"/><path class="cls-1" d="M216.47,232.61a14.75,14.75,0,0,1-4.4-10.85V23.18a14.64,14.64,0,0,1,4.4-11,16.18,16.18,0,0,1,21.86,0,14.91,14.91,0,0,1,4.25,11V221.76a15,15,0,0,1-4.25,10.85,15.78,15.78,0,0,1-21.86,0Z"/><path class="cls-1" d="M305.49,232.76a14.89,14.89,0,0,1-4.25-11V23.18a14.91,14.91,0,0,1,4.25-11A14.54,14.54,0,0,1,316.2,7.93a14.37,14.37,0,0,1,6.45,1.61,17.18,17.18,0,0,1,5.28,4L455.82,183.63V23.18a14.64,14.64,0,0,1,4.4-11,15,15,0,0,1,10.85-4.25,14.55,14.55,0,0,1,10.71,4.25,14.91,14.91,0,0,1,4.25,11V221.76a14.89,14.89,0,0,1-4.25,11A14.52,14.52,0,0,1,471.07,237a18,18,0,0,1-6.59-1.32,10.63,10.63,0,0,1-5.14-4L331.45,61.6V221.76a15,15,0,0,1-4.25,10.85,15.79,15.79,0,0,1-21.71.15Z"/><path class="cls-1" d="M818,232.61a14.75,14.75,0,0,1-4.4-10.85V23.18a14.64,14.64,0,0,1,4.4-11,15,15,0,0,1,10.85-4.25H961.44q6.75,0,10.86,4a13.83,13.83,0,0,1,4.1,10.41,13,13,0,0,1-4.1,10q-4.11,3.82-10.86,3.82H844.11v71.27H928.3a15.12,15.12,0,0,1,10.71,4,14.17,14.17,0,0,1,0,20.24,15.12,15.12,0,0,1-10.71,4H844.11v73.33H961.44q6.75,0,10.86,3.82a13,13,0,0,1,4.1,10,13.83,13.83,0,0,1-4.1,10.41q-4.11,4-10.86,4H828.86A14.71,14.71,0,0,1,818,232.61Z"/><path class="cls-2" d="M793.46,137l-49.32-30.33a15,15,0,0,0-15.72,0L679.1,137a15,15,0,0,0,15.72,25.56l25.11-15.45A92.47,92.47,0,1,1,630.81,30a91.68,91.68,0,0,1,55.58,18.56,15,15,0,1,0,18.05-24,122.47,122.47,0,1,0-73.63,220.34A122.67,122.67,0,0,0,751,146.12l26.76,16.46A15,15,0,1,0,793.46,137Z"/></g></g></svg>